<?xml version="1.0" standalone="no"?><!DOCTYPE svg PUBLIC "-//W3C//DTD SVG 1.1//EN" "http://www.w3.org/Graphics/SVG/1.1/DTD/svg11.dtd"><svg t="1524997968488" class="icon" style="" viewBox="0 0 1024 1024" version="1.1" xmlns="http://www.w3.org/2000/svg" p-id="2725" xmlns:xlink="http://www.w3.org/1999/xlink" width="200" height="200"><defs><style type="text/css"></style></defs><path d="M602.514286 809.398857c-17.261714 17.225143-43.117714-8.630857-25.856-25.856l12.909714-12.946286-28.416-28.452571a18.285714 18.285714 0 0 1 25.856-25.856l28.416 28.452571 129.316571-129.316571-28.452571-28.416a18.285714 18.285714 0 0 1 25.856-25.856l28.452571 28.416 12.946286-12.909714c17.225143-17.261714 43.081143 8.594286 25.856 25.856l-64.658286 64.658285 116.370286 116.370286a18.285714 18.285714 0 0 1 0 25.856l-51.712 51.712a18.285714 18.285714 0 0 1-25.856 0l-116.370286-116.370286-64.658285 64.658286z m-245.686857-64.658286l-116.370286 116.370286a18.285714 18.285714 0 0 1-25.856 0l-51.712-51.712a18.285714 18.285714 0 0 1 0-25.856l116.370286-116.370286-64.658286-64.658285c-17.225143-17.261714 8.630857-43.117714 25.856-25.856l12.946286 12.909714 400.822857-400.822857a18.285714 18.285714 0 0 1 12.946285-5.339429h155.136a18.285714 18.285714 0 0 1 18.285715 18.285715v155.136a18.285714 18.285714 0 0 1-5.339429 12.946285l-400.822857 400.822857 12.909714 12.946286c17.261714 17.225143-8.594286 43.081143-25.856 25.856l-64.658285-64.658286z m317.915428-524.8L279.259429 615.460571l129.316571 129.316572L804.022857 349.257143V219.977143H674.742857zM305.115429 693.028571l-103.424 103.424 25.856 25.856 103.424-103.424-25.856-25.856z m-85.138286-343.771428l85.138286 85.174857a18.285714 18.285714 0 1 1-25.856 25.856L188.745143 369.737143a18.285714 18.285714 0 0 1-5.339429-12.946286V201.691429a18.285714 18.285714 0 0 1 18.285715-18.285715h155.136a18.285714 18.285714 0 0 1 12.946285 5.339429l90.514286 90.514286a18.285714 18.285714 0 1 1-25.856 25.856L349.257143 219.977143H219.977143V349.257143zM693.028571 718.884571l103.424 103.424 25.856-25.856-103.424-103.424-25.856 25.856z" p-id="2726"></path></svg>